<svg width="617" height="167" viewBox="0 0 617 167" fill="none" xmlns="http://www.w3.org/2000/svg">
<path d="M220.399 115H211.759V54.04H190.351V46.456H241.711V54.04H220.399V115ZM288.162 63.544V115H281.25L280.002 108.184H279.618C278.53 109.976 277.122 111.448 275.394 112.6C273.666 113.752 271.778 114.584 269.73 115.096C267.682 115.672 265.538 115.96 263.298 115.96C259.202 115.96 255.746 115.32 252.93 114.04C250.178 112.696 248.098 110.648 246.69 107.896C245.282 105.144 244.578 101.592 244.578 97.24V63.544H253.122V96.664C253.122 100.76 254.05 103.832 255.906 105.88C257.762 107.928 260.642 108.952 264.546 108.952C268.386 108.952 271.394 108.248 273.57 106.84C275.81 105.368 277.378 103.256 278.274 100.504C279.234 97.688 279.714 94.296 279.714 90.328V63.544H288.162ZM328.306 62.584C334.45 62.584 339.09 64.088 342.226 67.096C345.362 70.04 346.93 74.84 346.93 81.496V115H338.578V82.072C338.578 77.912 337.65 74.808 335.794 72.76C333.938 70.712 331.026 69.688 327.058 69.688C321.362 69.688 317.426 71.288 315.25 74.488C313.074 77.688 311.986 82.296 311.986 88.312V115H303.538V63.544H310.354L311.602 70.552H312.082C313.234 68.76 314.642 67.288 316.306 66.136C318.034 64.92 319.922 64.024 321.97 63.448C324.018 62.872 326.13 62.584 328.306 62.584ZM381.793 62.584C386.209 62.584 389.985 63.544 393.121 65.464C396.321 67.384 398.753 70.104 400.417 73.624C402.145 77.08 403.009 81.144 403.009 85.816V90.904H367.777C367.905 96.728 369.377 101.176 372.193 104.248C375.073 107.256 379.073 108.76 384.193 108.76C387.457 108.76 390.337 108.472 392.833 107.896C395.393 107.256 398.017 106.36 400.705 105.208V112.6C398.081 113.752 395.489 114.584 392.929 115.096C390.369 115.672 387.329 115.96 383.809 115.96C378.945 115.96 374.625 114.968 370.849 112.984C367.137 111 364.225 108.056 362.113 104.152C360.065 100.184 359.041 95.352 359.041 89.656C359.041 84.024 359.969 79.192 361.825 75.16C363.745 71.128 366.401 68.024 369.793 65.848C373.249 63.672 377.249 62.584 381.793 62.584ZM381.697 69.496C377.665 69.496 374.465 70.808 372.097 73.432C369.793 75.992 368.417 79.576 367.969 84.184H394.177C394.177 81.24 393.729 78.68 392.833 76.504C391.937 74.328 390.561 72.632 388.705 71.416C386.913 70.136 384.577 69.496 381.697 69.496ZM437.997 115H429.357V54.04H407.949V46.456H459.309V54.04H437.997V115ZM479.333 62.68C485.605 62.68 490.245 64.056 493.253 66.808C496.261 69.56 497.765 73.944 497.765 79.96V115H491.621L489.989 107.704H489.605C488.133 109.56 486.597 111.128 484.997 112.408C483.461 113.624 481.669 114.52 479.621 115.096C477.637 115.672 475.205 115.96 472.325 115.96C469.253 115.96 466.469 115.416 463.973 114.328C461.541 113.24 459.621 111.576 458.213 109.336C456.805 107.032 456.101 104.152 456.101 100.696C456.101 95.576 458.117 91.64 462.149 88.888C466.181 86.072 472.389 84.536 480.773 84.28L489.509 83.992V80.92C489.509 76.632 488.581 73.656 486.725 71.992C484.869 70.328 482.245 69.496 478.853 69.496C476.165 69.496 473.605 69.912 471.173 70.744C468.741 71.512 466.469 72.408 464.357 73.432L461.765 67.096C464.005 65.88 466.661 64.856 469.733 64.024C472.805 63.128 476.005 62.68 479.333 62.68ZM481.829 90.136C475.429 90.392 470.981 91.416 468.485 93.208C466.053 95 464.837 97.528 464.837 100.792C464.837 103.672 465.701 105.784 467.429 107.128C469.221 108.472 471.493 109.144 474.245 109.144C478.597 109.144 482.213 107.96 485.093 105.592C487.973 103.16 489.413 99.448 489.413 94.456V89.848L481.829 90.136ZM521.145 115H512.697V42.04H521.145V115ZM544.84 80.152C544.84 81.176 544.776 82.52 544.648 84.184C544.584 85.848 544.52 87.288 544.456 88.504H544.84C545.224 87.992 545.8 87.256 546.568 86.296C547.336 85.336 548.104 84.376 548.872 83.416C549.704 82.392 550.408 81.56 550.984 80.92L567.4 63.544H577.288L556.456 85.528L578.728 115H568.552L550.696 91L544.84 96.088V115H536.488V42.04H544.84V80.152Z" fill="black"/>
<path d="M114.587 91.4273H98.5362V76.0926" stroke="black" stroke-width="7.18" stroke-linecap="round" stroke-linejoin="round"/>
<path d="M76.0656 62.2913L82.4858 57.6909" stroke="black" stroke-width="7.18" stroke-linecap="round" stroke-linejoin="round"/>
<path d="M121.007 62.2913L114.587 57.6909" stroke="black" stroke-width="7.18" stroke-linecap="round" stroke-linejoin="round"/>
<path d="M98.5362 119.03C114.492 119.03 127.427 106.672 127.427 91.4273C127.427 76.1829 114.492 63.8248 98.5362 63.8248C82.5803 63.8248 69.6455 76.1829 69.6455 91.4273C69.6455 106.672 82.5803 119.03 98.5362 119.03Z" stroke="black" stroke-width="7.18" stroke-linecap="round" stroke-linejoin="round"/>
<path d="M43.0953 86.6852V83.6199C43.0953 53.1477 67.8972 28.445 98.4919 28.445C129.087 28.445 153.889 53.1477 153.889 83.6199V86.6852" stroke="black" stroke-width="6.462" stroke-linecap="round" stroke-linejoin="round"/>
<path d="M29.2462 110.83V99.3239C29.2462 93.6979 33.5712 88.7934 39.7364 87.4288L43.0953 86.6851L51.782 84.7626C54.4043 84.1827 56.9445 85.9385 56.9445 88.3312V121.823C56.9445 124.216 54.4043 125.971 51.782 125.392L39.7364 122.725C33.5712 121.361 29.2462 116.456 29.2462 110.83Z" stroke="black" stroke-width="6.462" stroke-linecap="round" stroke-linejoin="round"/>
<path d="M167.738 110.83V99.3239C167.738 93.6979 163.413 88.7934 157.248 87.4288L153.889 86.6851L145.202 84.7626C142.579 84.1827 140.039 85.9385 140.039 88.3312V121.823C140.039 124.216 142.579 125.971 145.202 125.392L157.248 122.725C163.413 121.361 167.738 116.456 167.738 110.83Z" stroke="black" stroke-width="6.462" stroke-linecap="round" stroke-linejoin="round"/>
</svg>
