<svg width="175" height="153" viewBox="0 0 175 153" fill="none" xmlns="http://www.w3.org/2000/svg">
<path d="M103.34 89.9823H87.29V74.6476" stroke="black" stroke-width="7.18" stroke-linecap="round" stroke-linejoin="round"/>
<path d="M64.8195 60.8463L71.2396 56.2459" stroke="black" stroke-width="7.18" stroke-linecap="round" stroke-linejoin="round"/>
<path d="M109.761 60.8463L103.34 56.2459" stroke="black" stroke-width="7.18" stroke-linecap="round" stroke-linejoin="round"/>
<path d="M87.29 117.585C103.246 117.585 116.181 105.227 116.181 89.9823C116.181 74.7379 103.246 62.3798 87.29 62.3798C71.3341 62.3798 58.3993 74.7379 58.3993 89.9823C58.3993 105.227 71.3341 117.585 87.29 117.585Z" stroke="black" stroke-width="7.18" stroke-linecap="round" stroke-linejoin="round"/>
<path d="M31.8492 85.2402V82.1749C31.8492 51.7027 56.6511 27 87.2458 27C117.841 27 142.642 51.7027 142.642 82.1749V85.2402" stroke="black" stroke-width="6.462" stroke-linecap="round" stroke-linejoin="round"/>
<path d="M18 109.385V97.8789C18 92.2529 22.325 87.3484 28.4902 85.9838L31.8492 85.2401L40.5359 83.3176C43.1582 82.7377 45.6983 84.4934 45.6983 86.8862V120.378C45.6983 122.771 43.1582 124.526 40.5359 123.947L28.4902 121.28C22.325 119.916 18 115.011 18 109.385Z" stroke="black" stroke-width="6.462" stroke-linecap="round" stroke-linejoin="round"/>
<path d="M156.492 109.385V97.8789C156.492 92.2529 152.166 87.3484 146.001 85.9838L142.642 85.2401L133.955 83.3176C131.333 82.7377 128.793 84.4934 128.793 86.8862V120.378C128.793 122.771 131.333 124.526 133.955 123.947L146.001 121.28C152.166 119.916 156.492 115.011 156.492 109.385Z" stroke="black" stroke-width="6.462" stroke-linecap="round" stroke-linejoin="round"/>
</svg>
